# xmcd
#
# Track frame offsets: 
#        150
#        17992
#        27518
#        44271
#        61471
#        81012
#        100794
#        121326
#        136121
#        164013
#        185163
#        203137
#
# Disc length: 2884 seconds
#
# Revision: 0
# Processed by: cddbd v1.5.2PL0 Copyright (c) Steve Scherf et al.
# Submitted via: ExactAudioCopy v0.99pb5
#
DISCID=a60b420c
DTITLE=OTIS Blues Band - OTIS Blues Band
DYEAR=1996
DGENRE=Blues
TTITLE0=We'll play the blues for you
TTITLE1=Long gray mare
TTITLE2=Checkin' up on my baby
TTITLE3=One way street
TTITLE4=Hoochie coochie man
TTITLE5=The sky is crying
TTITLE6=High cost of loving
TTITLE7=Bad town
TTITLE8=If I were a carpenter
TTITLE9=Help me
TTITLE10=Stuck in the middle with you
TTITLE11=Walking on sunset
EXTD=
EXTT0=
EXTT1=
EXTT2=
EXTT3=
EXTT4=
EXTT5=
EXTT6=
EXTT7=
EXTT8=
EXTT9=
EXTT10=
EXTT11=
PLAYORDER=
